<svg width="25" height="23" viewBox="0 0 25 23" fill="none" xmlns="http://www.w3.org/2000/svg">
<path d="M22.9167 0H2.08333C0.93316 0 0 0.93316 0 2.08333V15.9722C0 17.1224 0.93316 18.0556 2.08333 18.0556H10.4167L9.72222 20.1389H6.59722C6.01997 20.1389 5.55556 20.6033 5.55556 21.1806C5.55556 21.7578 6.01997 22.2222 6.59722 22.2222H18.4028C18.98 22.2222 19.4444 21.7578 19.4444 21.1806C19.4444 20.6033 18.98 20.1389 18.4028 20.1389H15.2778L14.5833 18.0556H22.9167C24.0668 18.0556 25 17.1224 25 15.9722V2.08333C25 0.93316 24.0668 0 22.9167 0ZM22.2222 15.2778H2.77778V2.77778H22.2222V15.2778Z" fill="white"/>
</svg>
