<svg width="36" height="21" viewBox="0 0 36 21" fill="none" xmlns="http://www.w3.org/2000/svg">
<path d="M32.06 0.880005H8.49999C6.82799 0.880005 5.45999 2.212 5.45999 3.84V4.95C5.45999 5.357 5.80199 5.69 6.21999 5.69C6.63799 5.69 6.97999 5.357 6.97999 4.95V3.84C6.97999 3.692 7.01799 3.544 7.05599 3.396L15.568 10.5L7.05599 17.604C7.01799 17.456 6.97999 17.308 6.97999 17.16V16.05C6.97999 15.643 6.63799 15.31 6.21999 15.31C5.80199 15.31 5.45999 15.643 5.45999 16.05V17.16C5.45999 18.788 6.82799 20.12 8.49999 20.12H32.06C33.732 20.12 35.1 18.788 35.1 17.16V3.84C35.1 2.212 33.732 0.880005 32.06 0.880005ZM8.19599 2.397C8.27199 2.36 8.38599 2.36 8.49999 2.36H32.06C32.174 2.36 32.288 2.36 32.364 2.397L20.774 12.054C20.47 12.276 20.09 12.276 19.786 12.054L8.19599 2.397ZM32.06 18.64H8.49999C8.38599 18.64 8.27199 18.64 8.19599 18.603L16.746 11.462L18.798 13.201C19.216 13.571 19.748 13.756 20.28 13.756C20.812 13.756 21.344 13.571 21.762 13.201L23.814 11.462L32.364 18.603C32.288 18.64 32.174 18.64 32.06 18.64ZM33.58 17.16C33.58 17.308 33.542 17.456 33.504 17.604L24.992 10.5L33.504 3.396C33.542 3.544 33.58 3.692 33.58 3.84V17.16ZM3.17999 8.65C3.17999 8.243 3.52199 7.91 3.93999 7.91H8.49999C8.91799 7.91 9.25999 8.243 9.25999 8.65C9.25999 9.057 8.91799 9.39 8.49999 9.39H3.93999C3.52199 9.39 3.17999 9.057 3.17999 8.65ZM8.49999 13.09H1.65999C1.24199 13.09 0.899994 12.757 0.899994 12.35C0.899994 11.943 1.24199 11.61 1.65999 11.61H8.49999C8.91799 11.61 9.25999 11.943 9.25999 12.35C9.25999 12.757 8.91799 13.09 8.49999 13.09Z" fill="black"/>
</svg>
