<svg width="34" height="27" viewBox="0 0 34 27" fill="none" xmlns="http://www.w3.org/2000/svg">
<path d="M33.994 0.509594C33.9889 0.478478 33.9829 0.448537 33.9711 0.418008C33.9585 0.384545 33.9415 0.354016 33.9223 0.322901C33.912 0.305875 33.9083 0.287676 33.8957 0.271237C33.8876 0.26067 33.8743 0.253625 33.8647 0.243644C33.8403 0.216639 33.8114 0.193155 33.7811 0.169085C33.7508 0.145014 33.7205 0.122705 33.6857 0.103331C33.6732 0.0962864 33.665 0.0863059 33.6525 0.0804351C33.6318 0.0704547 33.6089 0.0681063 33.5874 0.0598871C33.5468 0.0440359 33.5068 0.0305329 33.464 0.0205525C33.4277 0.0129204 33.3922 0.00881083 33.3553 0.00528832C33.3117 0.00117873 33.2695 -0.0011696 33.2259 0.00059165C33.1852 0.0023529 33.1461 0.00881083 33.1061 0.0164429C33.081 0.0211396 33.0551 0.0193783 33.03 0.0264234L0.501184 8.83269C0.206946 8.91135 0.00659839 9.12916 0.000684059 9.37632C-0.00523027 9.62349 0.184028 9.84717 0.475309 9.93582L15.6729 14.5732L22.24 26.646C22.3576 26.8615 22.6252 27 22.9187 27C22.9313 27 22.9431 27 22.9557 26.9994C23.264 26.9871 23.5294 26.8245 23.6233 26.5914L33.9733 0.759691C33.9807 0.741492 33.9785 0.722705 33.9829 0.703918C33.9918 0.671042 33.9985 0.639339 33.9999 0.605875C34.0014 0.572999 33.9992 0.541883 33.994 0.509594ZM2.90906 9.42036L30.4972 1.95147L16.0448 13.4284L2.90906 9.42036ZM22.813 24.7391L17.1057 14.2468L31.6423 2.70235L22.813 24.7391Z" fill="#BABABA"/>
<path d="M11.6123 17.7787C11.3233 17.5491 10.856 17.5491 10.567 17.7787L0.216889 25.9978C-0.0721742 26.2274 -0.0721742 26.5984 0.216889 26.828C0.36105 26.9425 0.550309 27 0.739568 27C0.928826 27 1.11808 26.9425 1.26225 26.828L11.6123 18.6088C11.9014 18.3793 11.9014 18.0082 11.6123 17.7787Z" fill="#BABABA"/>
<path d="M13.5241 21.8883L8.34909 25.9978C8.06003 26.2274 8.06003 26.5984 8.34909 26.828C8.49325 26.9425 8.68251 27 8.87177 27C9.06103 27 9.25029 26.9425 9.39445 26.828L14.5695 22.7184C14.8586 22.4888 14.8586 22.1178 14.5695 21.8883C14.2804 21.6587 13.8132 21.6587 13.5241 21.8883Z" fill="#BABABA"/>
<path d="M0.739568 20.5421C0.928826 20.5421 1.11808 20.4845 1.26225 20.3701L6.43728 16.2605C6.72635 16.0309 6.72635 15.6599 6.43728 15.4303C6.14822 15.2008 5.68099 15.2008 5.39193 15.4303L0.216889 19.5399C-0.0721742 19.7695 -0.0721742 20.1405 0.216889 20.3701C0.36105 20.4845 0.550309 20.5421 0.739568 20.5421Z" fill="#BABABA"/>
</svg>
